<svg width="500" height="500" viewBox="0 0 500 500" fill="none" xmlns="http://www.w3.org/2000/svg">
<path d="M249.532 61.1782L409.363 153.456V338.01L249.532 430.288L89.7006 338.01V153.456L249.532 61.1782Z" fill="white"/>
<path d="M133.238 336.485C154.486 363.681 222.013 342.959 285.765 293.151C349.516 243.343 385.959 182.836 364.711 155.638C343.462 128.442 275.936 149.165 212.185 198.973C148.434 248.782 111.991 309.288 133.238 336.485ZM142.316 329.392C135.269 320.374 138.348 302.668 151.773 280.378C165.91 256.906 189.908 230.995 219.276 208.051C248.645 185.106 279.591 168.088 305.786 160.049C330.662 152.416 348.587 153.712 355.633 162.731C362.681 171.75 359.602 189.456 346.177 211.747C332.039 235.218 308.041 261.128 278.673 284.074C249.304 307.018 218.357 324.037 192.164 332.074C167.287 339.709 149.363 338.411 142.316 329.392Z" fill="black"/>
<path d="M364.71 336.485C385.959 309.289 349.515 248.781 285.763 198.973C222.012 149.165 154.483 128.442 133.237 155.638C111.988 182.835 148.432 243.343 212.184 293.151C275.935 342.959 343.461 363.682 364.71 336.485ZM355.632 329.392C348.586 338.413 330.661 339.709 305.785 332.074C279.59 324.037 248.644 307.018 219.276 284.074C189.907 261.128 165.908 235.218 151.773 211.747C138.347 189.456 135.268 171.751 142.314 162.731C149.361 153.712 167.286 152.416 192.161 160.049C218.356 168.088 249.303 185.106 278.671 208.051C308.04 230.995 332.038 256.906 346.175 280.378C359.6 302.667 362.68 320.372 355.632 329.392Z" fill="black"/>
<path d="M248.975 270.541C262.494 270.541 273.452 259.581 273.452 246.061C273.452 232.543 262.494 221.584 248.975 221.584C235.455 221.584 224.495 232.543 224.495 246.061C224.495 259.581 235.455 270.541 248.975 270.541Z" fill="black"/>
</svg>
