<svg width="500" height="500" viewBox="0 0 500 500" fill="none" xmlns="http://www.w3.org/2000/svg">
<path d="M453.565 245.775C453.565 218.318 419.18 192.297 366.462 176.161C378.628 122.429 373.221 79.6802 349.397 65.9938C343.905 62.7834 337.484 61.2627 330.472 61.2627V80.1026C334.358 80.1026 337.484 80.8629 340.103 82.2992C351.593 88.8889 356.578 113.981 352.691 146.253C351.762 154.195 350.241 162.559 348.383 171.092C331.824 167.036 313.744 163.911 294.736 161.883C283.33 146.253 271.503 132.06 259.59 119.641C287.132 94.0424 312.984 80.0181 330.557 80.0181V61.1782C307.324 61.1782 276.909 77.737 246.157 106.462C215.405 77.906 184.991 61.5162 161.758 61.5162V80.356C179.246 80.356 205.183 94.2959 232.724 119.725C220.897 132.145 209.069 146.253 197.833 161.883C178.739 163.911 160.66 167.036 144.101 171.176C142.158 162.728 140.722 154.533 139.708 146.676C135.737 114.403 140.637 89.3113 152.042 82.6371C154.577 81.1164 157.872 80.4405 161.758 80.4405V61.6006C154.661 61.6006 148.241 63.1213 142.665 66.3317C118.925 80.0181 113.602 122.682 125.852 176.245C73.3035 192.466 39.0876 218.403 39.0876 245.775C39.0876 273.233 73.4725 299.254 126.19 315.39C114.025 369.122 119.432 411.87 143.256 425.557C148.748 428.767 155.168 430.288 162.265 430.288C185.498 430.288 215.912 413.729 246.664 385.005C277.416 413.56 307.831 429.95 331.064 429.95C338.16 429.95 344.581 428.429 350.157 425.219C373.897 411.532 379.219 368.868 366.969 315.305C419.349 299.169 453.565 273.148 453.565 245.775ZM343.567 189.425C340.441 200.323 336.555 211.559 332.162 222.796C328.698 216.037 325.065 209.278 321.094 202.52C317.208 195.761 313.069 189.171 308.929 182.75C320.926 184.525 332.5 186.721 343.567 189.425ZM304.874 279.4C298.284 290.805 291.525 301.619 284.513 311.673C271.925 312.771 259.168 313.362 246.326 313.362C233.569 313.362 220.812 312.771 208.309 311.757C201.296 301.704 194.453 290.974 187.864 279.653C181.443 268.586 175.613 257.35 170.291 246.029C175.529 234.708 181.443 223.387 187.779 212.32C194.369 200.914 201.127 190.1 208.14 180.047C220.728 178.949 233.485 178.357 246.326 178.357C259.083 178.357 271.84 178.949 284.344 179.962C291.356 190.016 298.199 200.745 304.789 212.066C311.21 223.134 317.039 234.37 322.362 245.691C317.039 257.012 311.21 268.332 304.874 279.4ZM332.162 268.417C336.724 279.738 340.61 291.059 343.821 302.041C332.753 304.745 321.094 307.026 309.013 308.8C313.153 302.295 317.293 295.621 321.179 288.778C325.065 282.019 328.698 275.176 332.162 268.417ZM246.495 358.561C238.638 350.451 230.781 341.411 223.009 331.526C230.612 331.864 238.385 332.118 246.242 332.118C254.183 332.118 262.04 331.949 269.728 331.526C262.125 341.411 254.268 350.451 246.495 358.561ZM183.639 308.8C171.643 307.026 160.068 304.829 149.001 302.126C152.127 291.228 156.013 279.991 160.406 268.755C163.87 275.514 167.503 282.272 171.474 289.031C175.444 295.79 179.5 302.379 183.639 308.8ZM246.073 132.989C253.93 141.1 261.787 150.14 269.559 160.024C261.956 159.686 254.183 159.433 246.326 159.433C238.385 159.433 230.528 159.602 222.84 160.024C230.443 150.14 238.3 141.1 246.073 132.989ZM183.555 182.75C179.415 189.256 175.275 195.93 171.389 202.773C167.503 209.532 163.87 216.29 160.406 223.049C155.844 211.728 151.958 200.408 148.748 189.425C159.815 186.806 171.474 184.525 183.555 182.75ZM107.097 288.524C77.1898 275.767 57.843 259.039 57.843 245.775C57.843 232.511 77.1898 215.699 107.097 203.026C114.363 199.901 122.304 197.113 130.499 194.494C135.315 211.052 141.651 228.287 149.508 245.944C141.735 263.517 135.484 280.667 130.753 297.141C122.389 294.522 114.447 291.65 107.097 288.524ZM152.549 409.251C141.06 402.662 136.075 377.57 139.961 345.297C140.891 337.356 142.411 328.992 144.27 320.459C160.829 324.514 178.908 327.64 197.917 329.668C209.322 345.297 221.15 359.49 233.062 371.91C205.521 397.508 179.669 411.532 162.096 411.532C158.294 411.448 155.084 410.688 152.549 409.251ZM352.945 344.875C356.916 377.148 352.016 402.239 340.61 408.913C338.076 410.434 334.781 411.11 330.895 411.11C313.406 411.11 287.47 397.17 259.928 371.741C271.756 359.322 283.584 345.213 294.82 329.583C313.913 327.556 331.993 324.43 348.552 320.29C350.495 328.823 352.016 337.018 352.945 344.875ZM385.471 288.524C378.206 291.65 370.264 294.438 362.069 297.057C357.254 280.498 350.917 263.263 343.06 245.606C350.833 228.034 357.085 210.883 361.816 194.409C370.18 197.028 378.121 199.901 385.556 203.026C415.463 215.784 434.81 232.511 434.81 245.775C434.725 259.039 415.378 275.852 385.471 288.524Z" fill="white"/>
<path d="M246.242 284.385C267.565 284.385 284.851 267.099 284.851 245.775C284.851 224.452 267.565 207.166 246.242 207.166C224.919 207.166 207.633 224.452 207.633 245.775C207.633 267.099 224.919 284.385 246.242 284.385Z" fill="white"/>
</svg>
