<svg width="500" height="500" viewBox="0 0 500 500" fill="none" xmlns="http://www.w3.org/2000/svg">
<path d="M439.774 148.331C439.774 148.331 309.764 50.1454 208.864 73.0883C205.904 73.8284 202.697 74.5685 199.983 75.5553C184.441 80.4893 172.846 89.1237 165.692 99.4851C164.212 101.459 163.225 103.679 161.991 105.653L124.74 169.054L189.128 181.636C214.538 199.891 250.309 207.539 280.9 199.645L395.615 222.094L439.774 148.331Z" fill="#BBBDBF"/>
<path d="M131.393 166.057L165.6 107.837C166.122 106.997 166.621 106.092 167.058 105.299C167.188 105.063 167.313 104.838 167.431 104.626C167.995 103.616 168.501 102.769 169.066 102.016L169.116 101.95L169.163 101.882C175.721 92.3835 186.493 84.2629 201.259 79.5754L201.342 79.549L201.424 79.5191C203.523 78.7559 205.964 78.1521 208.568 77.5077C208.989 77.4035 209.414 77.2983 209.843 77.1912C258.814 66.0745 315.4 84.3182 360.33 105.908C382.692 116.653 401.942 128.117 415.603 136.897C422.43 141.284 427.854 144.997 431.564 147.607C432.562 148.309 433.436 148.932 434.179 149.466L393.518 217.386L281.71 195.506L280.772 195.322L279.846 195.561C250.546 203.122 216.051 195.785 191.589 178.21L190.841 177.673L189.937 177.496L131.393 166.057Z" fill="#1B1F29" stroke="white" stroke-width="8.43551"/>
<path d="M164.705 147.098C161.745 147.839 158.538 148.579 155.824 149.565C114.625 162.887 100.563 201.372 124.246 235.17C147.93 268.968 200.476 285.743 241.675 272.421L395.615 222.588C395.615 222.342 265.605 124.156 164.705 147.098Z" fill="#929497"/>
<path d="M164.705 147.098C161.745 147.839 158.538 148.579 155.824 149.565C114.625 162.887 100.563 201.372 124.246 235.17C147.93 268.968 200.476 285.743 241.675 272.421L395.615 222.588C395.615 222.342 265.605 124.156 164.705 147.098Z" fill="white"/>
<path d="M368.517 314.241L368.509 314.254L368.501 314.268L320.618 399.499L54.1211 353.889L98.7482 274.198L251.114 224.874C251.114 224.874 251.115 224.874 251.115 224.874C270.753 218.524 293.279 219.307 313.821 225.837C334.373 232.369 352.581 244.536 363.789 260.531C376.78 279.09 377.482 298.551 368.517 314.241Z" fill="#1B1F29" stroke="white" stroke-width="8.43551"/>
<path d="M318.892 344.21C295.209 310.412 242.662 293.637 201.463 306.958L47.5231 357.038C47.5231 357.038 177.533 455.224 278.433 432.281C281.393 431.541 284.601 430.801 287.314 429.814C328.513 416.493 342.575 378.008 318.892 344.21Z" fill="white"/>
</svg>
