<svg width="500" height="500" viewBox="0 0 500 500" fill="none" xmlns="http://www.w3.org/2000/svg">
<path d="M377.255 110.016C342.981 60.96 275.289 46.4197 226.344 77.6039L140.385 132.389C128.773 139.695 118.813 149.343 111.141 160.716C103.47 172.09 98.256 184.939 95.8329 198.443C91.7327 221.189 95.3367 244.652 106.074 265.119C98.7166 276.281 93.6984 288.818 91.3229 301.974C88.874 315.749 89.2005 329.875 92.2832 343.522C95.3658 357.17 101.143 370.065 109.275 381.45C143.557 430.51 211.249 445.044 260.186 413.862L346.145 359.076C357.758 351.772 367.718 342.124 375.39 330.75C383.062 319.376 388.275 306.527 390.697 293.023C394.796 270.277 391.195 246.814 380.462 226.345C387.818 215.184 392.834 202.647 395.207 189.492C397.658 175.717 397.332 161.59 394.249 147.943C391.167 134.295 385.389 121.4 377.255 110.016Z" fill="white"/>
<path d="M217.947 386.065C204.42 389.582 190.14 388.863 177.034 384.005C163.929 379.147 152.631 370.385 144.664 358.901C139.773 352.055 136.298 344.3 134.443 336.093C132.589 327.885 132.393 319.39 133.866 311.106C134.365 308.386 135.051 305.704 135.92 303.079L137.539 298.143L141.942 301.377C152.113 308.85 163.485 314.532 175.568 318.178L178.762 319.147L178.468 322.336C178.078 326.872 179.306 331.399 181.935 335.116C184.333 338.576 187.734 341.216 191.68 342.681C195.626 344.145 199.926 344.363 204 343.306C205.868 342.807 207.649 342.024 209.28 340.986L295.239 286.206C297.342 284.882 299.147 283.134 300.537 281.074C301.928 279.013 302.874 276.686 303.315 274.24C303.757 271.743 303.696 269.183 303.137 266.71C302.578 264.236 301.532 261.899 300.061 259.834C297.662 256.374 294.259 253.733 290.312 252.268C286.365 250.803 282.063 250.583 277.988 251.64C276.122 252.139 274.344 252.921 272.715 253.959L239.912 274.869C234.518 278.299 228.632 280.884 222.457 282.534C208.93 286.052 194.649 285.333 181.544 280.475C168.438 275.617 157.139 266.854 149.173 255.37C144.281 248.523 140.806 240.769 138.952 232.562C137.098 224.354 136.901 215.859 138.374 207.575C139.831 199.455 142.967 191.729 147.58 184.89C152.194 178.051 158.184 172.25 165.168 167.859L251.121 113.075C256.517 109.64 262.408 107.051 268.588 105.4C282.115 101.883 296.395 102.602 309.501 107.46C322.606 112.318 333.905 121.081 341.871 132.565C346.762 139.411 350.237 147.166 352.092 155.373C353.946 163.58 354.142 172.075 352.669 180.36C352.168 183.079 351.482 185.761 350.615 188.387L348.996 193.323L344.595 190.093C334.425 182.616 323.052 176.932 310.967 173.286L307.773 172.316L308.067 169.127C308.454 164.592 307.226 160.065 304.6 156.347C302.202 152.888 298.801 150.247 294.855 148.783C290.909 147.318 286.609 147.1 282.535 148.157C280.667 148.657 278.886 149.439 277.255 150.478L191.295 205.259C189.191 206.583 187.387 208.331 185.997 210.391C184.607 212.452 183.662 214.779 183.223 217.226C182.779 219.723 182.838 222.283 183.396 224.757C183.953 227.231 184.999 229.568 186.471 231.633C188.87 235.093 192.273 237.734 196.22 239.199C200.167 240.665 204.469 240.884 208.545 239.827C210.412 239.327 212.193 238.545 213.824 237.507L246.622 216.604C252.014 213.17 257.9 210.583 264.075 208.933C277.602 205.416 291.883 206.135 304.989 210.993C318.094 215.851 329.393 224.613 337.36 236.098C342.251 242.944 345.726 250.698 347.58 258.906C349.435 267.113 349.631 275.608 348.158 283.892C346.7 292.013 343.564 299.74 338.951 306.579C334.337 313.419 328.348 319.221 321.365 323.615L235.412 378.391C230.016 381.826 224.127 384.414 217.947 386.065Z" fill="#1B1F29"/>
</svg>
